#N canvas 764 171 1012 539 10;
#X obj 27 197 comport 0 115200;
#X msg 350 339 close;
#X msg 72 270 append \$1;
#X obj 27 219 route float;
#X obj 29 302 list store;
#X obj 27 244 sel 10, f 8;
#X obj 27 270 t b b;
#X obj 120 220 print R;
#X obj 29 328 list tosymbol;
#X obj 63 93 netreceive -u -b 8989;
#X msg 618 236 symbol <\$1>;
#X obj 217 355 list fromsymbol;
#X obj 29 382 list trim;
#X obj 29 409 print from [dcc_station];
#X obj 29 355 t a a;
#X obj 70 354 s \$0.from.dcc-ex;
#X obj 27 175 r \$0.to.dcc-ex;
#X obj 63 116 s \$0.to.dcc-ex;
#X obj 350 373 s \$0.to.dcc-ex;
#X obj 217 378 s \$0.to.dcc-ex;
#X obj 448 88 r \$0.from.dcc-ex;
#X obj 20 20 cnv 18 60 40 empty empty DCC-EX 2 22 0 15 #7c7c7c #bbbbbb 0;
#X obj 350 289 sel 0 1, f 15;
#X obj 401 314 f \$2;
#X msg 401 339 open \$1;
#X obj 85 20 hsl 85 40 0 127 0 0 \$0.connect empty empty -2 -9 0 10 #fcfcfc #000000 #000000 0 1;
#X obj 175 20 hsl 65 40 0 127 0 0 \$0.onoff empty empty -2 -9 0 10 #fcfcfc #000000 #000000 0 1;
#X obj 81 20 cnv 18 90 40 empty \$0.connect.r connect 10 22 0 15 #cccccc #444444 0;
#X obj 172 20 cnv 18 70 40 empty \$0.onoff.r off 25 22 0 15 #ffaaaa #000000 0;
#X obj 326 30 r \$0.connect;
#X obj 326 53 sel;
#X obj 353 53 t a;
#X obj 326 99 + 1;
#X obj 326 122 mod 2;
#X obj 326 145 t a a;
#X obj 448 116 sel <*\ LCD3:Ready\ *>;
#X obj 326 168 t a a;
#X msg 475 165 1;
#X obj 387 179 t b a;
#X obj 387 208 f;
#X obj 448 139 t b b;
#X msg 448 166 0;
#X obj 387 263 s \$0.connected;
#X obj 614 380 r \$0.connected;
#X obj 614 484 s \$0.connect.r;
#X msg 614 455 color #cccccc #000000 #444444;
#X obj 614 403 sel 0 1;
#X obj 618 73 sel;
#X obj 645 73 t a;
#X obj 618 96 f;
#X obj 618 119 + 1;
#X obj 618 142 mod 2;
#X obj 618 165 t a a;
#X obj 618 48 spigot 0;
#X obj 674 48 r \$0.connected;
#X obj 674 90 sel 0;
#X msg 674 113 0;
#X obj 618 25 r \$0.onoff;
#X obj 715 267 s \$0.onoff.r;
#X msg 734 218 color #aaffaa #000000 #000000 \, label on;
#X msg 715 238 color #ffaaaa #000000 #000000 \, label off;
#X obj 618 195 t a a;
#X obj 715 192 sel 0 1;
#X obj 350 312 del 100;
#X msg 633 429 color #fafadf #000000 #000000;
#X obj 217 331 r \$1.to.dcc;
#X obj 618 262 s \$1.to.dcc;
#X obj 326 76 f 1;
#X msg 170 162 close;
#X msg 171 212 open 0;
#X obj 387 239 && 1;
#X connect 0 0 3 0;
#X connect 0 1 7 0;
#X connect 1 0 18 0;
#X connect 2 0 4 0;
#X connect 3 0 5 0;
#X connect 4 0 8 0;
#X connect 5 0 6 0;
#X connect 5 1 2 0;
#X connect 6 0 4 1;
#X connect 6 1 4 0;
#X connect 8 0 14 0;
#X connect 9 0 17 0;
#X connect 10 0 66 0;
#X connect 11 0 19 0;
#X connect 12 0 13 0;
#X connect 14 0 12 0;
#X connect 14 1 15 0;
#X connect 16 0 0 0;
#X connect 20 0 35 0;
#X connect 22 0 63 0;
#X connect 22 1 23 0;
#X connect 23 0 24 0;
#X connect 24 0 18 0;
#X connect 29 0 30 0;
#X connect 30 0 67 0;
#X connect 30 1 31 0;
#X connect 31 0 30 1;
#X connect 32 0 33 0;
#X connect 33 0 34 0;
#X connect 34 0 36 0;
#X connect 34 1 67 1;
#X connect 35 0 40 0;
#X connect 36 0 22 0;
#X connect 36 1 38 0;
#X connect 37 0 39 0;
#X connect 38 0 39 0;
#X connect 38 1 70 1;
#X connect 39 0 70 0;
#X connect 40 0 41 0;
#X connect 40 1 37 0;
#X connect 41 0 39 1;
#X connect 43 0 46 0;
#X connect 45 0 44 0;
#X connect 46 0 45 0;
#X connect 46 1 64 0;
#X connect 47 0 49 0;
#X connect 47 1 48 0;
#X connect 48 0 47 1;
#X connect 49 0 50 0;
#X connect 50 0 51 0;
#X connect 51 0 52 0;
#X connect 52 0 61 0;
#X connect 52 1 49 1;
#X connect 53 0 47 0;
#X connect 54 0 53 1;
#X connect 54 0 55 0;
#X connect 55 0 56 0;
#X connect 56 0 52 0;
#X connect 57 0 53 0;
#X connect 59 0 58 0;
#X connect 60 0 58 0;
#X connect 61 0 10 0;
#X connect 61 1 62 0;
#X connect 62 0 60 0;
#X connect 62 1 59 0;
#X connect 63 0 1 0;
#X connect 64 0 44 0;
#X connect 65 0 11 0;
#X connect 67 0 32 0;
#X connect 68 0 0 0;
#X connect 69 0 0 0;
#X connect 70 0 42 0;
#X coords 0 -1 1 1 222 40 2 20 20;
