#N canvas 551 127 1024 490 10;
#X obj 20 43 vsl 50 128 0 127 0 0 \$0.throttle \$0.throttle.r \$2 6 20 0 30 #000000 #ffffbb #606060 0 1;
#X obj 124 39 int;
#X obj 20 175 cnv 10 50 18 empty empty empty 20 12 0 10 #000000 #404040 0;
#X obj 20 175 nbx 3 18 0 127 0 0 \$0.throttle.n \$0.throttle.n.r empty 0 -9 0 14 #000000 #bbbbbb #000000 0 256;
#X obj 124 18 r \$0.throttle;
#X obj 124 61 change -1;
#X obj 124 84 t a a;
#X msg 151 107 set \$1;
#X obj 240 39 int;
#X obj 240 61 change -1;
#X obj 240 84 t a a;
#X msg 267 107 set \$1;
#X obj 240 18 r \$0.throttle.n;
#X obj 151 128 s \$0.throttle.n.r;
#X obj 267 128 s \$0.throttle.r;
#X obj 20 20 cnv 18 50 20 empty empty \$3 2 10 0 10 #831312 #dfdfdf 0;
#X obj 124 280 s \$1.to.dcc;
#X obj 152 179 t b a;
#X obj 124 205 pack f f;
#X obj 124 182 f;
#X obj 124 228 list prepend \$2;
#X msg 124 253 symbol <t\\\ \$1\\\ \$2\\\ \$3>;
#X text 267 251 addr speed dir;
#X obj 23 193 hsl 45 20 0 127 0 0 \$0.dir \$0.dir.r ⇦ 8 9 0 40 #000000 #000000 #bbbbbb 0 1;
#X obj 391 56 sel;
#X obj 417 56 t a;
#X obj 391 127 mod 2;
#X obj 391 105 + 1;
#X obj 391 151 t a a a;
#X msg 449 198 label ⇨;
#X msg 430 220 label ⇦;
#X obj 430 247 s \$0.dir.r;
#X obj 391 33 r \$0.dir;
#X obj 514 55 sel;
#X obj 540 55 t a;
#X obj 514 78 f;
#X obj 514 122 mod 2;
#X obj 514 100 + 1;
#X obj 514 145 t a a a;
#X obj 553 168 sel 0 1;
#X msg 572 194 color #ffffdd #ffffdd #000000;
#X obj 23 214 hsl 45 20 0 127 0 0 \$0.fl \$0.fl.r FL 14 10 0 14 #000000 #000000 #888888 0 1;
#X obj 514 32 r \$0.fl;
#X obj 553 241 s \$0.fl.r;
#X msg 553 216 color #000000 #000000 #888888;
#X obj 766 242 << 0;
#X obj 766 268 t b a;
#X obj 514 315 |;
#X obj 514 259 << 4;
#X obj 514 339 + 128;
#X obj 514 362 list prepend \$2;
#X msg 514 385 symbol <f\\\ \$1\\\ \$2>;
#X obj 514 407 s \$1.to.dcc;
#X obj 766 55 sel;
#X obj 792 55 t a;
#X obj 766 78 f;
#X obj 766 124 mod 2;
#X obj 766 101 + 1;
#X obj 766 147 t a a a;
#X obj 805 170 sel 0 1;
#X msg 805 218 color #000000 #000000 #888888;
#X obj 766 32 r \$0.ku;
#X obj 805 243 s \$0.ku.r;
#X obj 23 234 hsl 45 20 0 127 0 0 \$0.ku \$0.ku.r Ku 14 10 0 14 #000000 #000000 #888888 0 1;
#X msg 824 196 color #aaaaaa #aaaaaa #000000;
#X obj 194 397 r \$1.stop;
#X msg 194 420 0;
#X obj 430 173 sel 0 1;
#X obj 391 81 f 0;
#N canvas 1029 181 477 356 throttle_learn 1;
#X obj 61 52 pack f f f;
#X obj 61 28 ctlin, f 10;
#X obj 153 36 doubleclick \$0.throttle;
#X msg 61 75 \$3 \$2 \$1;
#X obj 120 139 spigot;
#X msg 197 148 0;
#X obj 61 98 t a a;
#X obj 61 202 route -1;
#X obj 61 225 route -1;
#X obj 120 162 t a a b;
#X msg 120 203 \$1;
#X msg 119 228 \$2;
#X obj 61 307 s \$0.throttle.r;
#X obj 153 62 == 0;
#X obj 189 63 t a;
#X obj 153 85 sel 1 0, f 32;
#X msg 247 167 -1 -1;
#X msg 153 109 1;
#X obj 240 291 s \$0.throttle.r;
#X msg 281 197 color #000000 #bbbbbb #606060;
#X msg 242 257 color #000000 #ffffbb #606060;
#X msg 253 224 color #000000 #8888ff #606060;
#X connect 0 0 3 0;
#X connect 1 0 0 0;
#X connect 1 1 0 1;
#X connect 1 2 0 2;
#X connect 2 0 13 0;
#X connect 3 0 6 0;
#X connect 4 0 9 0;
#X connect 5 0 4 1;
#X connect 6 0 7 0;
#X connect 6 1 4 0;
#X connect 7 0 8 0;
#X connect 8 0 12 0;
#X connect 9 0 10 0;
#X connect 9 1 11 0;
#X connect 9 2 5 0;
#X connect 9 2 20 0;
#X connect 10 0 7 1;
#X connect 11 0 8 1;
#X connect 13 0 14 0;
#X connect 13 0 15 0;
#X connect 14 0 13 1;
#X connect 15 0 17 0;
#X connect 15 0 21 0;
#X connect 15 1 16 0;
#X connect 15 1 19 0;
#X connect 16 0 9 0;
#X connect 17 0 4 1;
#X connect 19 0 18 0;
#X connect 20 0 18 0;
#X connect 21 0 18 0;
#X restore 323 398 pd throttle_learn;
#X connect 1 0 5 0;
#X connect 4 0 1 0;
#X connect 5 0 6 0;
#X connect 6 0 19 0;
#X connect 6 1 7 0;
#X connect 7 0 13 0;
#X connect 8 0 9 0;
#X connect 9 0 10 0;
#X connect 10 0 19 0;
#X connect 10 1 11 0;
#X connect 11 0 14 0;
#X connect 12 0 8 0;
#X connect 17 0 19 0;
#X connect 17 1 18 1;
#X connect 18 0 20 0;
#X connect 19 0 18 0;
#X connect 20 0 21 0;
#X connect 21 0 16 0;
#X connect 24 0 68 0;
#X connect 24 1 25 0;
#X connect 25 0 24 1;
#X connect 26 0 28 0;
#X connect 27 0 26 0;
#X connect 28 0 17 0;
#X connect 28 1 68 1;
#X connect 28 2 67 0;
#X connect 29 0 31 0;
#X connect 30 0 31 0;
#X connect 32 0 24 0;
#X connect 33 0 35 0;
#X connect 33 1 34 0;
#X connect 34 0 33 1;
#X connect 35 0 37 0;
#X connect 36 0 38 0;
#X connect 37 0 36 0;
#X connect 38 0 48 0;
#X connect 38 1 35 1;
#X connect 38 2 39 0;
#X connect 39 0 44 0;
#X connect 39 1 40 0;
#X connect 40 0 43 0;
#X connect 42 0 33 0;
#X connect 44 0 43 0;
#X connect 45 0 46 0;
#X connect 46 0 47 0;
#X connect 46 1 47 1;
#X connect 47 0 49 0;
#X connect 48 0 47 0;
#X connect 49 0 50 0;
#X connect 50 0 51 0;
#X connect 51 0 52 0;
#X connect 53 0 55 0;
#X connect 53 1 54 0;
#X connect 54 0 53 1;
#X connect 55 0 57 0;
#X connect 56 0 58 0;
#X connect 57 0 56 0;
#X connect 58 0 45 0;
#X connect 58 1 55 1;
#X connect 58 2 59 0;
#X connect 59 0 60 0;
#X connect 59 1 64 0;
#X connect 60 0 62 0;
#X connect 61 0 53 0;
#X connect 64 0 62 0;
#X connect 65 0 66 0;
#X connect 66 0 6 0;
#X connect 66 0 10 0;
#X connect 67 0 30 0;
#X connect 67 1 29 0;
#X connect 68 0 27 0;
#X coords 0 -1 1 1 50 234 2 20 20;
