#N canvas 636 180 293 311 10;
#X obj 23 92 sel;
#X obj 49 93 t a;
#X obj 23 20 hsl 75 40 0 127 0 0 \$0.stop empty empty -2 -9 0 10 #fcfcfc #000000 #000000 0 1;
#X obj 20 20 cnv 18 80 40 empty \$0.stop.r STOP 15 20 0 20 #ff0000 #000000 0;
#X obj 23 70 r \$0.stop;
#X msg 63 176 color #ff0000 #000000 #000000;
#X msg 50 200 color #660000 #000000 #000000;
#X obj 64 224 s \$0.stop.r;
#X obj 23 262 s \$1.stop;
#X obj 23 118 t b b;
#X obj 63 151 del 100;
#X connect 0 0 9 0;
#X connect 0 1 1 0;
#X connect 1 0 0 1;
#X connect 4 0 0 0;
#X connect 5 0 7 0;
#X connect 6 0 7 0;
#X connect 9 0 8 0;
#X connect 9 1 6 0;
#X connect 9 1 10 0;
#X connect 10 0 5 0;
#X coords 0 -1 1 1 80 40 2 20 20;
