#N canvas 636 180 462 531 10;
#X obj 23 20 hsl 22 20 0 127 0 0 empty \$0.lbl.r \$2 2 10 0 12 #000000 #000000 #999999 0 1;
#X obj 23 93 sel;
#X obj 49 93 t a;
#X obj 23 116 f;
#X obj 23 169 mod 2;
#X obj 23 142 + 1;
#X obj 23 192 t a a a;
#X obj 62 215 sel 0 1;
#X obj 59 20 hsl 32 20 0 127 0 0 \$0.weiche \$0.weiche.r gera 2 10 0 12 #444444 #444444 #ffffff 0 1;
#X msg 23 353 symbol <a\\\ \$1\\\ \$2>;
#X obj 23 380 s \$1.to.dcc;
#X obj 23 70 r \$0.weiche;
#X obj 60 289 s \$0.weiche.r;
#X msg 81 240 label abzw;
#X msg 62 262 label gera;
#X obj 23 329 list prepend \$2;
#X obj 192 292 s \$0.lbl.r;
#X msg 192 268 color #000000 #000000 #999999;
#X msg 207 245 color #000000 #000000 #ffffbb;
#X obj 48 20 toggle_learn \$0.weiche.l;
#X obj 129 121 r \$0.weiche.l;
#X connect 1 0 3 0;
#X connect 1 1 2 0;
#X connect 2 0 1 1;
#X connect 3 0 5 0;
#X connect 4 0 6 0;
#X connect 5 0 4 0;
#X connect 6 0 15 0;
#X connect 6 1 3 1;
#X connect 6 2 7 0;
#X connect 7 0 14 0;
#X connect 7 0 17 0;
#X connect 7 1 13 0;
#X connect 7 1 18 0;
#X connect 9 0 10 0;
#X connect 11 0 1 0;
#X connect 13 0 12 0;
#X connect 14 0 12 0;
#X connect 15 0 9 0;
#X connect 17 0 16 0;
#X connect 18 0 16 0;
#X connect 20 0 6 0;
#X coords 0 -1 1 1 73 20 2 20 20;
