#N canvas 503 335 533 360 10;
#X obj 41 44 pack f f f;
#X obj 41 20 ctlin, f 10;
#X msg 41 67 \$3 \$2 \$1;
#X obj 100 131 spigot;
#X msg 177 140 0;
#X obj 41 90 t a a;
#X obj 41 194 route -1;
#X obj 41 217 route -1;
#X obj 100 154 t a a b;
#X msg 100 195 \$1;
#X msg 99 220 \$2;
#X obj 133 54 == 0;
#X obj 169 55 t a;
#X obj 133 77 sel 1 0, f 32;
#X msg 227 159 -1 -1;
#X msg 133 101 1;
#X obj 133 28 doubleclick \$1;
#X obj 41 299 s \$1.r;
#X msg 261 189 0;
#X msg 233 216 1;
#X msg 222 249 2;
#X obj 220 283 outlet;
#X connect 0 0 2 0;
#X connect 1 0 0 0;
#X connect 1 1 0 1;
#X connect 1 2 0 2;
#X connect 2 0 5 0;
#X connect 3 0 8 0;
#X connect 4 0 3 1;
#X connect 5 0 6 0;
#X connect 5 1 3 0;
#X connect 6 0 7 0;
#X connect 7 0 17 0;
#X connect 8 0 9 0;
#X connect 8 1 10 0;
#X connect 8 2 4 0;
#X connect 8 2 20 0;
#X connect 9 0 6 1;
#X connect 10 0 7 1;
#X connect 11 0 12 0;
#X connect 11 0 13 0;
#X connect 12 0 11 1;
#X connect 13 0 15 0;
#X connect 13 0 19 0;
#X connect 13 1 14 0;
#X connect 13 1 18 0;
#X connect 14 0 8 0;
#X connect 15 0 3 1;
#X connect 16 0 11 0;
#X connect 18 0 21 0;
#X connect 19 0 21 0;
#X connect 20 0 21 0;
