#N canvas 503 335 654 587 10;
#X obj 41 103 pack f f f;
#X obj 41 79 ctlin, f 10;
#X msg 41 126 \$3 \$2 \$1;
#X obj 100 190 spigot;
#X msg 177 199 0;
#X obj 41 149 t a a;
#X obj 41 253 route -1;
#X obj 41 276 route -1;
#X obj 100 213 t a a b;
#X msg 100 254 \$1;
#X msg 99 279 \$2;
#X obj 133 113 == 0;
#X obj 169 114 t a;
#X obj 133 136 sel 1 0, f 32;
#X msg 227 218 -1 -1;
#X msg 133 160 1;
#X msg 261 248 0;
#X msg 233 275 1;
#X msg 222 308 2;
#X obj 41 305 >= 1;
#X obj 133 88 doubleclick \$0.click;
#X obj 20 22 vsl 8 15 0 127 0 0 \$0.click \$0.clr empty 0 -9 0 10 #888888 #888888 #888888 0 1;
#X obj 222 336 sel 0 1 2;
#X obj 222 486 s \$0.clr;
#X msg 256 362 #000000;
#X msg 239 387 #bbbbff;
#X msg 222 411 #888888;
#X obj 222 439 symbol;
#X msg 222 461 color \$1 \$1 \$1;
#X obj 41 331 s \$1;
#X connect 0 0 2 0;
#X connect 1 0 0 0;
#X connect 1 1 0 1;
#X connect 1 2 0 2;
#X connect 2 0 5 0;
#X connect 3 0 8 0;
#X connect 4 0 3 1;
#X connect 5 0 6 0;
#X connect 5 1 3 0;
#X connect 6 0 7 0;
#X connect 7 0 19 0;
#X connect 8 0 9 0;
#X connect 8 1 10 0;
#X connect 8 2 4 0;
#X connect 8 2 18 0;
#X connect 9 0 6 1;
#X connect 10 0 7 1;
#X connect 11 0 12 0;
#X connect 11 0 13 0;
#X connect 12 0 11 1;
#X connect 13 0 15 0;
#X connect 13 0 17 0;
#X connect 13 1 14 0;
#X connect 13 1 16 0;
#X connect 14 0 8 0;
#X connect 15 0 3 1;
#X connect 16 0 22 0;
#X connect 17 0 22 0;
#X connect 18 0 22 0;
#X connect 19 0 29 0;
#X connect 20 0 11 0;
#X connect 22 0 26 0;
#X connect 22 1 25 0;
#X connect 22 2 24 0;
#X connect 24 0 27 0;
#X connect 25 0 27 0;
#X connect 26 0 27 0;
#X connect 27 0 28 0;
#X connect 28 0 23 0;
#X coords 0 -1 1 1 8 20 2 20 20;
