#N canvas 503 335 630 507 10;
#X obj 199 48 pack f f f;
#X obj 199 24 ctlin, f 10;
#X obj 258 135 spigot;
#X msg 358 144 0;
#X obj 199 94 t a a;
#X obj 199 198 route -1;
#X obj 199 221 route -1;
#X obj 258 158 t a a b;
#X msg 258 199 \$1;
#X msg 280 226 \$2;
#X obj 314 58 == 0;
#X obj 350 59 t a;
#X obj 314 81 sel 1 0, f 32;
#X msg 314 105 1;
#X msg 442 193 0;
#X msg 414 220 1;
#X msg 403 253 2;
#X obj 314 33 doubleclick \$0.click;
#X obj 20 22 vsl 8 15 0 127 0 0 \$0.click \$0.clr empty 0 -9 0 10 #888888 #888888 #888888 0 1;
#X obj 403 281 sel 0 1 2;
#X obj 403 431 s \$0.clr;
#X msg 437 307 #000000;
#X msg 420 332 #bbbbff;
#X msg 403 356 #888888;
#X obj 403 384 symbol;
#X msg 403 406 color \$1 \$1 \$1;
#X obj 146 392 s \$1;
#X obj 77 24 notein, f 10;
#X obj 77 47 pack f f f;
#X msg 199 71 \$3 \$2 \$1 -1 -1 0;
#X obj 77 93 t a a;
#X obj 77 192 route -1;
#X obj 77 215 route -1;
#X msg 199 147 \$1 \$2 \$3;
#X obj 199 254 >= 1;
#X msg 77 143 \$4 \$5 \$6;
#X msg 143 188 \$4;
#X msg 139 214 \$5;
#X msg 408 163 -1 -1 0 -1 -1 0;
#X msg 77 70 -1 -1 0 \$3 \$1 \$2;
#X obj 77 243 >= 1;
#X obj 77 266 sel 1;
#X obj 77 289 == 0;
#X obj 77 312 t a a;
#X connect 0 0 29 0;
#X connect 1 0 0 0;
#X connect 1 1 0 1;
#X connect 1 2 0 2;
#X connect 2 0 7 0;
#X connect 3 0 2 1;
#X connect 4 0 33 0;
#X connect 4 1 2 0;
#X connect 5 0 6 0;
#X connect 6 0 34 0;
#X connect 7 0 8 0;
#X connect 7 0 9 0;
#X connect 7 0 36 0;
#X connect 7 0 37 0;
#X connect 7 2 3 0;
#X connect 7 2 16 0;
#X connect 8 0 5 1;
#X connect 9 0 6 1;
#X connect 10 0 11 0;
#X connect 10 0 12 0;
#X connect 11 0 10 1;
#X connect 12 0 13 0;
#X connect 12 0 15 0;
#X connect 12 1 38 0;
#X connect 12 1 14 0;
#X connect 13 0 2 1;
#X connect 14 0 19 0;
#X connect 15 0 19 0;
#X connect 16 0 19 0;
#X connect 17 0 10 0;
#X connect 19 0 23 0;
#X connect 19 1 22 0;
#X connect 19 2 21 0;
#X connect 21 0 24 0;
#X connect 22 0 24 0;
#X connect 23 0 24 0;
#X connect 24 0 25 0;
#X connect 25 0 20 0;
#X connect 27 0 28 0;
#X connect 27 1 28 1;
#X connect 27 2 28 2;
#X connect 28 0 39 0;
#X connect 29 0 4 0;
#X connect 30 0 35 0;
#X connect 30 1 2 0;
#X connect 31 0 32 0;
#X connect 32 0 40 0;
#X connect 33 0 5 0;
#X connect 34 0 26 0;
#X connect 35 0 31 0;
#X connect 36 0 31 1;
#X connect 37 0 32 1;
#X connect 38 0 7 0;
#X connect 39 0 30 0;
#X connect 40 0 41 0;
#X connect 41 0 42 0;
#X connect 42 0 43 0;
#X connect 43 0 26 0;
#X connect 43 1 42 1;
#X coords 0 -1 1 1 8 20 2 20 20;
