#N canvas 624 102 862 528 10;
#X obj 78 50 hsl 170 30 0 127 0 0 \$0.innen \$0.innen.r Wagen\\\ \$2 4 15 0 12 #000000 #000000 #ffffff 0 1;
#X obj 51 139 r \$0.innen;
#X obj 51 162 sel;
#X obj 77 162 t a;
#X obj 51 185 f;
#X obj 51 249 t a a a;
#X obj 90 274 sel 0 1;
#X obj 88 348 s \$0.innen.r;
#X msg 90 321 color #000000 #000000 #ffffff;
#X msg 109 299 color #ffffdd #ffffdd #000000;
#X obj 318 152 sel;
#X obj 344 152 t a;
#X obj 318 175 f;
#X obj 318 252 t a a a;
#X obj 357 274 sel 0 1;
#X obj 318 129 r \$0.schluss1;
#X obj 357 347 s \$0.schluss1.r;
#X obj 53 50 hsl 20 30 0 127 0 0 \$0.schluss1 \$0.schluss1.r empty 4 15 0 12 #444444 #444444 #ffffff 0 1;
#X msg 376 299 color #ff5555 #ff5555 #000000;
#X msg 357 321 color #444444 #444444 #ffffff;
#X obj 608 142 sel;
#X obj 634 142 t a;
#X obj 608 165 f;
#X obj 608 241 t a a a;
#X obj 647 264 sel 0 1;
#X msg 666 289 color #ff5555 #ff5555 #000000;
#X msg 647 311 color #444444 #444444 #ffffff;
#X obj 608 119 r \$0.schluss2;
#X obj 647 337 s \$0.schluss2.r;
#X obj 253 50 hsl 20 30 0 127 0 0 \$0.schluss2 \$0.schluss2.r empty 4 15 0 12 #444444 #444444 #ffffff 0 1;
#X obj 487 27 loadbang;
#X obj 487 50 f \$2;
#X obj 487 73 * 10;
#X obj 487 96 s \$0.offset;
#X obj 136 372 r \$0.offset;
#X obj 136 395 + 1;
#X obj 51 388 list prepend;
#X msg 258 469 symbol <a\\\ \$1\\\ \$2>;
#X obj 580 21 bng 18 250 50 0 empty empty empty 0 -9 0 10 #fcfcfc #000000 #000000;
#X obj 403 372 r \$0.offset;
#X obj 318 388 list prepend;
#X obj 693 367 r \$0.offset;
#X obj 608 383 list prepend;
#X obj 403 395 + 2;
#X obj 693 390 + 3;
#X obj 258 496 s \$1.to.dcc;
#X obj 51 206 + 1;
#X obj 51 228 mod 2;
#X obj 318 198 + 1;
#X obj 318 225 mod 2;
#X obj 608 215 mod 2;
#X obj 608 188 + 1;
#X connect 1 0 2 0;
#X connect 2 0 4 0;
#X connect 2 1 3 0;
#X connect 3 0 2 1;
#X connect 4 0 46 0;
#X connect 5 0 36 0;
#X connect 5 1 4 1;
#X connect 5 2 6 0;
#X connect 6 0 8 0;
#X connect 6 1 9 0;
#X connect 8 0 7 0;
#X connect 9 0 7 0;
#X connect 10 0 12 0;
#X connect 10 1 11 0;
#X connect 11 0 10 1;
#X connect 12 0 48 0;
#X connect 13 0 40 0;
#X connect 13 1 12 1;
#X connect 13 2 14 0;
#X connect 14 0 19 0;
#X connect 14 1 18 0;
#X connect 15 0 10 0;
#X connect 18 0 16 0;
#X connect 19 0 16 0;
#X connect 20 0 22 0;
#X connect 20 1 21 0;
#X connect 21 0 20 1;
#X connect 22 0 51 0;
#X connect 23 0 42 0;
#X connect 23 1 22 1;
#X connect 23 2 24 0;
#X connect 24 0 26 0;
#X connect 24 1 25 0;
#X connect 25 0 28 0;
#X connect 26 0 28 0;
#X connect 27 0 20 0;
#X connect 30 0 31 0;
#X connect 31 0 32 0;
#X connect 32 0 33 0;
#X connect 34 0 35 0;
#X connect 35 0 36 1;
#X connect 36 0 37 0;
#X connect 37 0 45 0;
#X connect 38 0 31 0;
#X connect 39 0 43 0;
#X connect 40 0 37 0;
#X connect 41 0 44 0;
#X connect 42 0 37 0;
#X connect 43 0 40 1;
#X connect 44 0 42 1;
#X connect 46 0 47 0;
#X connect 47 0 5 0;
#X connect 48 0 49 0;
#X connect 49 0 13 0;
#X connect 50 0 23 0;
#X connect 51 0 50 0;
#X coords 0 -1 1 1 225 30 2 50 50;
