#N canvas 701 110 692 668 10;
#X declare -path abs;
#X obj 545 15 declare -path abs;
#X obj 79 152 waggon \$0 10;
#X obj 18 154 loco \$0 57 Re\ 4/4";
#X obj 88 82 switch \$0 26;
#X obj 11 82 switch \$0 25;
#X obj 165 82 switch \$0 27;
#X obj 242 82 switch \$0 28;
#X obj 78 189 waggon \$0 12;
#X obj 234 7 stop \$0;
#X obj 6 7 dcc_ex \$0;
#X obj 18 409 loco \$0 56 Re\ 4/4";
#X obj 383 514 s \$0.to.dcc;
#X obj 381 461 tgl 18 0 empty empty empty 0 -9 0 10 #fcfcfc #000000 #000000 0 1;
#X msg 383 487 symbol <a\\\ 52\\\ \$1>;
#X obj 381 427 s \$0.to.dcc;
#X obj 575 365 tgl 18 0 empty empty empty 0 -9 0 10 #fcfcfc #000000 #000000 0 1;
#X obj 537 522 s \$0.to.dcc;
#X obj 620 468 tgl 18 0 empty empty empty 0 -9 0 10 #fcfcfc #000000 #000000 0 1;
#X obj 535 435 s \$0.to.dcc;
#X obj 569 328 tgl 18 0 empty empty empty 0 -9 0 10 #fcfcfc #000000 #000000 0 1;
#X msg 381 400 symbol <a\\\ 51\\\ \$1>;
#X msg 535 408 symbol <a\\\ 53\\\ \$1>;
#X msg 537 495 symbol <a\\\ 54\\\ \$1>;
#X obj 573 258 tgl 18 0 empty empty empty 0 -9 0 10 #fcfcfc #000000 #000000 0 1;
#X obj 598 306 ==;
#X obj 181 262 loco \$0 7 Re\ 482;
#X obj 261 320 loco \$0 9 Re\ 3/3;
#X connect 12 0 13 0;
#X connect 13 0 11 0;
#X connect 15 0 20 0;
#X connect 17 0 22 0;
#X connect 19 0 21 0;
#X connect 20 0 14 0;
#X connect 21 0 18 0;
#X connect 22 0 16 0;
#X connect 23 0 19 0;
#X connect 23 0 12 0;
#X connect 23 0 24 0;
#X connect 24 0 15 0;
#X connect 24 0 17 0;
