#N canvas 4 32 933 868 10;
#X declare -path abs;
#X obj 27 197 comport 0 115200;
#X msg 27 51 open 0;
#X msg 40 74 close;
#X obj 166 9 tgl 20 0 empty empty empty 0 -10 0 12 #fcfcfc #000000 #000000 0 1;
#X msg 80 293 append \$1;
#X obj 27 243 route float;
#X obj 29 326 list store;
#X obj 27 268 sel 10, f 8;
#X obj 27 294 t b b;
#X obj 29 378 print;
#X obj 136 226 print R;
#X obj 29 352 list tosymbol;
#X obj 239 188 list fromsymbol;
#X floatatom 457 29 5 0 124 0 - - - 0;
#X obj 456 107 pack f f;
#X obj 555 44 tgl 20 0 empty empty empty 0 -10 0 12 #fcfcfc #000000 #000000 0 1;
#X obj 456 59 change -1;
#X obj 597 231 tgl 20 0 empty empty empty 0 -10 0 12 #fcfcfc #000000 #000000 0 1;
#X obj 597 257 << 0;
#X obj 557 310 |;
#X obj 597 283 t b a;
#X obj 557 231 tgl 20 0 empty empty empty 0 -10 0 12 #fcfcfc #000000 #000000 0 1;
#X obj 557 257 << 1;
#X obj 516 362 |;
#X obj 556 335 t b a;
#X obj 476 412 |;
#X obj 516 385 t b a;
#X obj 436 462 |;
#X obj 476 435 t b a;
#X obj 396 512 |;
#X obj 436 485 t b a;
#X obj 356 562 |;
#X obj 396 535 t b a;
#X obj 516 231 tgl 20 0 empty empty empty 0 -10 0 12 #fcfcfc #000000 #000000 0 1;
#X obj 476 231 tgl 20 0 empty empty empty 0 -10 0 12 #fcfcfc #000000 #000000 0 1;
#X obj 436 231 tgl 20 0 empty empty empty 0 -10 0 12 #fcfcfc #000000 #000000 0 1;
#X obj 396 231 tgl 20 0 empty empty empty 0 -10 0 12 #fcfcfc #000000 #000000 0 1;
#X obj 356 231 tgl 20 0 empty empty empty 0 -10 0 12 #fcfcfc #000000 #000000 0 1;
#X obj 516 257 << 2;
#X obj 476 257 << 3;
#X obj 436 257 << 4;
#X obj 396 257 << 5;
#X obj 356 257 << 6;
#X obj 356 588 + 128;
#X text 430 201 LICHT;
#X text 596 204 KUPPLUNG;
#X obj 555 69 t b a;
#X msg 166 37 symbol <\$1>;
#X obj 279 64 - 64;
#X obj 278 126 abs;
#X obj 315 126 > 0;
#X obj 279 88 t a a;
#X obj 279 40 ctlin 9;
#X obj 345 18 ctlin 25;
#X obj 345 42 / 127;
#X obj 391 91 / 127;
#X obj 391 68 ctlin 17;
#X obj 288 226 / 64;
#X obj 288 250 * 54;
#X obj 288 274 int;
#X obj 288 298 change -1;
#X obj 237 834 hsl 255 19 0 127 0 0 empty empty empty -2 -10 0 12 #fcfcfc #000000 #000000 0 1;
#X msg 40 458 64;
#X floatatom 40 508 5 0 0 0 - - - 0;
#X obj 71 132 netreceive -u -b 8989;
#X obj 69 648 tgl 40 0 empty empty empty 0 -10 0 12 #feffc6 #000000 #000000 0 1;
#X obj 137 409 metro 1000;
#X obj 140 344 tgl 19 0 empty empty empty 0 -10 0 12 #fcfcfc #000000 #000000 0 1;
#X msg 49 564 symbol <c>;
#X obj 202 504 tgl 19 0 empty empty empty 0 -10 0 12 #fcfcfc #000000 #000000 0 1;
#X msg 189 558 symbol <a\\\ 2044\\\ \$1>;
#X obj 278 472 tgl 19 0 empty empty empty 0 -10 0 12 #fcfcfc #000000 #000000 0 1;
#X msg 219 526 symbol <a\\\ 1\\\ \$1>;
#X msg 138 587 symbol <a\\\ 15\\\ \$1>;
#X obj 121 530 tgl 40 0 empty empty empty 0 -10 0 12 #ffc7c6 #000000 #000000 0 1;
#X msg 148 614 symbol <a\\\ 14\\\ \$1>;
#X obj 76 594 tgl 40 0 empty empty empty 0 -10 0 12 #ffe3c6 #000000 #000000 0 1;
#X msg 148 674 symbol <a\\\ 13\\\ \$1>;
#X obj 66 721 tgl 40 0 empty empty empty 0 -10 0 12 #c6ffc7 #000000 #000000 0 1;
#X msg 148 734 symbol <a\\\ 12\\\ \$1>;
#X floatatom 499 521 5 0 124 0 - - - 0;
#X obj 498 599 pack f f;
#X obj 597 536 tgl 20 0 empty empty empty 0 -10 0 12 #fcfcfc #000000 #000000 0 1;
#X obj 498 551 change -1;
#X obj 597 561 t b a;
#X msg 500 642 symbol <t\\\ 7\\\ \$1\\\ \$2>;
#X msg 326 729 symbol <a\\\ 25\\\ \$1>;
#X obj 328 678 tgl 40 0 empty empty empty 0 -10 0 12 #e3c6ff #000000 #000000 0 1;
#X text 392 688 Turnout;
#X obj 70 819 metro 1000;
#X obj 80 783 tgl 19 0 empty empty empty 0 -10 0 12 #fcfcfc #000000 #000000 0 1;
#N canvas 909 32 603 716 turnouts 1;
#X msg 44 86 symbol <a\\\ 25\\\ \$1>;
#X obj 44 35 tgl 40 0 empty empty 25 5 20 0 30 #e3c6ff #000000 #000000 0 1;
#X obj 184 35 tgl 40 0 empty empty 26 5 20 0 30 #e3c6ff #000000 #000000 0 1;
#X obj 334 35 tgl 40 0 empty empty 27 5 20 0 30 #e3c6ff #000000 #000000 0 1;
#X obj 474 35 tgl 40 0 empty empty 28 5 20 0 30 #e3c6ff #000000 #000000 0 1;
#X msg 184 86 symbol <a\\\ 26\\\ \$1>;
#X msg 334 86 symbol <a\\\ 27\\\ \$1>;
#X msg 474 86 symbol <a\\\ 28\\\ \$1>;
#X obj 153 146 s \$0.turnouts;
#X obj 390 146 tgl 20 0 empty empty empty 0 -10 0 12 #fcfcfc #000000 #000000 0 1;
#X obj 389 207 tgl 20 0 empty empty empty 0 -10 0 12 #fcfcfc #000000 #000000 0 1;
#X obj 389 270 tgl 20 0 empty empty empty 0 -10 0 12 #fcfcfc #000000 #000000 0 1;
#X obj 389 340 tgl 20 0 empty empty empty 0 -10 0 12 #fcfcfc #000000 #000000 0 1;
#X msg 390 176 symbol <a\\\ 101\\\ \$1>;
#X msg 389 237 symbol <a\\\ 102\\\ \$1>;
#X msg 389 300 symbol <a\\\ 103\\\ \$1>;
#X msg 389 370 symbol <a\\\ 104\\\ \$1>;
#X obj 53 247 tgl 20 0 empty empty empty 0 -10 0 12 #fcfcfc #000000 #000000 0 1;
#X msg 53 279 symbol <a\\\ 152\\\ \$1>;
#X obj 105 448 waggon \$0 10;
#X obj 44 450 loco \$0 57 Re\ 4/4";
#X obj 116 330 switch \$0 26;
#X obj 39 330 switch \$0 25;
#X obj 193 330 switch \$0 27;
#X obj 270 330 switch \$0 28;
#X obj 104 485 waggon \$0 12;
#X connect 0 0 8 0;
#X connect 1 0 0 0;
#X connect 2 0 5 0;
#X connect 3 0 6 0;
#X connect 4 0 7 0;
#X connect 5 0 8 0;
#X connect 6 0 8 0;
#X connect 7 0 8 0;
#X connect 9 0 13 0;
#X connect 10 0 14 0;
#X connect 11 0 15 0;
#X connect 12 0 16 0;
#X connect 13 0 8 0;
#X connect 14 0 8 0;
#X connect 15 0 8 0;
#X connect 16 0 8 0;
#X connect 17 0 18 0;
#X connect 18 0 8 0;
#X restore 322 799 pd turnouts;
#X obj 122 103 r \$0.turnouts;
#X msg 456 137 symbol <t\\\ 57\\\ \$1\\\ \$2>;
#X obj 656 526 vsl 20 255 0 127 0 0 empty empty empty 0 -9 0 12 #fcfcfc #000000 #000000 0 1;
#X floatatom 661 815 5 0 0 0 - - - 0;
#X obj 684 529 tgl 50 0 empty empty empty 0 -10 0 12 #fcfcfc #000000 #000000 0 1;
#X obj 654 352 bng 100 250 50 0 empty empty empty 0 -10 0 12 #ff0400 #000000 #000000;
#X msg 654 457 0;
#X obj 758 236 pack f f;
#X obj 857 198 t b a;
#X msg 758 266 symbol <t\\\ 56\\\ \$1\\\ \$2>;
#X obj 780 521 vsl 20 255 0 127 0 0 empty empty empty 0 -9 0 12 #fcfcfc #000000 #000000 0 1;
#X floatatom 776 823 5 0 0 0 - - - 0;
#X obj 822 521 tgl 50 0 empty empty empty 0 -10 0 12 #fcfcfc #000000 #000000 0 1;
#X obj 748 191 f;
#X obj 779 803 int;
#X msg 332 625 symbol <f\\\ 57\\\ \$1>;
#X obj 691 43 declare -path abs;
#X obj 106 74 r \$0.to.dcc;
#X obj 171 58 s \$0.to.dcc;
#X connect 0 0 5 0;
#X connect 0 1 10 0;
#X connect 1 0 0 0;
#X connect 2 0 0 0;
#X connect 3 0 47 0;
#X connect 4 0 6 0;
#X connect 5 0 7 0;
#X connect 6 0 11 0;
#X connect 7 0 8 0;
#X connect 7 1 4 0;
#X connect 8 0 6 1;
#X connect 8 1 6 0;
#X connect 11 0 9 0;
#X connect 12 0 0 0;
#X connect 13 0 16 0;
#X connect 14 0 93 0;
#X connect 15 0 46 0;
#X connect 16 0 14 0;
#X connect 17 0 18 0;
#X connect 18 0 20 0;
#X connect 19 0 24 0;
#X connect 20 0 19 0;
#X connect 20 1 19 1;
#X connect 21 0 22 0;
#X connect 22 0 19 0;
#X connect 23 0 26 0;
#X connect 24 0 23 0;
#X connect 24 1 23 1;
#X connect 25 0 28 0;
#X connect 26 0 25 0;
#X connect 26 1 25 1;
#X connect 27 0 30 0;
#X connect 28 0 27 0;
#X connect 28 1 27 1;
#X connect 29 0 32 0;
#X connect 30 0 29 0;
#X connect 30 1 29 1;
#X connect 31 0 43 0;
#X connect 32 0 31 0;
#X connect 32 1 31 1;
#X connect 33 0 38 0;
#X connect 34 0 39 0;
#X connect 35 0 40 0;
#X connect 36 0 41 0;
#X connect 37 0 42 0;
#X connect 38 0 23 0;
#X connect 39 0 25 0;
#X connect 40 0 27 0;
#X connect 41 0 29 0;
#X connect 42 0 31 0;
#X connect 43 0 107 0;
#X connect 46 0 14 0;
#X connect 46 1 14 1;
#X connect 47 0 110 0;
#X connect 48 0 51 0;
#X connect 49 0 57 0;
#X connect 50 0 15 0;
#X connect 51 0 49 0;
#X connect 51 1 50 0;
#X connect 52 0 48 0;
#X connect 53 0 54 0;
#X connect 54 0 35 0;
#X connect 55 0 17 0;
#X connect 56 0 55 0;
#X connect 57 0 58 0;
#X connect 58 0 59 0;
#X connect 59 0 60 0;
#X connect 60 0 13 0;
#X connect 61 0 63 0;
#X connect 62 0 61 0;
#X connect 63 0 48 0;
#X connect 64 0 0 0;
#X connect 65 0 77 0;
#X connect 66 0 65 0;
#X connect 67 0 66 0;
#X connect 68 0 12 0;
#X connect 69 0 70 0;
#X connect 70 0 12 0;
#X connect 71 0 72 0;
#X connect 72 0 12 0;
#X connect 73 0 12 0;
#X connect 74 0 73 0;
#X connect 75 0 12 0;
#X connect 76 0 75 0;
#X connect 77 0 12 0;
#X connect 78 0 79 0;
#X connect 79 0 12 0;
#X connect 80 0 83 0;
#X connect 81 0 85 0;
#X connect 82 0 84 0;
#X connect 83 0 81 0;
#X connect 84 0 81 0;
#X connect 84 1 81 1;
#X connect 85 0 12 0;
#X connect 86 0 12 0;
#X connect 87 0 86 0;
#X connect 89 0 68 0;
#X connect 90 0 89 0;
#X connect 92 0 12 0;
#X connect 93 0 12 0;
#X connect 94 0 95 0;
#X connect 95 0 14 0;
#X connect 96 0 46 0;
#X connect 97 0 98 0;
#X connect 98 0 94 0;
#X connect 98 0 102 0;
#X connect 99 0 101 0;
#X connect 100 0 105 0;
#X connect 100 1 99 1;
#X connect 101 0 12 0;
#X connect 102 0 106 0;
#X connect 103 0 105 0;
#X connect 104 0 100 0;
#X connect 105 0 99 0;
#X connect 106 0 103 0;
#X connect 107 0 12 0;
#X connect 109 0 12 0;
